uphill_walking_calibrated_grf.mot
version=1
nRows=12
nColumns=37
inDegrees=yes
endheader
time	ground_force1_vx	ground_force1_vy	ground_force1_vz	ground_force1_px	ground_force1_py	ground_force1_pz	ground_torque1_x	ground_torque1_y	ground_torque1_z	ground_force2_vx	ground_force2_vy	ground_force2_vz	ground_force2_px	ground_force2_py	ground_force2_pz	ground_torque2_x	ground_torque2_y	ground_torque2_z	femur_assistance_force_vx	femur_assistance_force_vy	femur_assistance_force_vz	femur_assistance_force_px	femur_assistance_force_py	femur_assistance_force_pz	femur_assistance_torque_x	femur_assistance_torque_y	femur_assistance_torque_z	tibia_assistance_force_vx	tibia_assistance_force_vy	tibia_assistance_force_vz	tibia_assistance_force_px	tibia_assistance_force_py	tibia_assistance_force_pz	tibia_assistance_torque_x	tibia_assistance_torque_y	tibia_assistance_torque_z
     26.99000000	      0.00000000	      0.00000000	      0.00000000	      0.88900000	      0.00000000	     -0.84017500	      0.00000000	      0.00000000	      0.00000000	    116.13190500	    380.38278200	    -34.98192600	      0.70554400	      0.00000000	     -0.48413600	      0.00001100	      3.58418300	      0.00001800	     -1.16634061	    174.99611324	      0.00000000	     -0.10000504	     -0.19600140	      0.00000000	      0.00000000	      0.00000000	      0.00000000	     46.06849071	   -168.82740940	      0.00000000	     -0.08000000	     -0.08164002	      0.00000000	      0.00000000	      0.00000000	      0.00000000
     26.99100000	      0.00000000	      0.00000000	      0.00000000	      0.88900000	      0.00000000	     -0.84017500	      0.00000000	      0.00000000	      0.00000000	    114.14826200	    377.02584800	    -34.98192600	      0.70567400	      0.00000000	     -0.48375200	      0.00002100	      3.92154200	     -0.00000100	     -1.38054451	    174.99455448	      0.00000000	     -0.10000504	     -0.19600140	      0.00000000	      0.00000000	      0.00000000	      0.00000000	     45.52127015	   -168.97577922	      0.00000000	     -0.08000000	     -0.08141616	      0.00000000	      0.00000000	      0.00000000	      0.00000000
     26.99200000	      0.00000000	      0.00000000	      0.00000000	      0.88900000	      0.00000000	     -0.84017500	      0.00000000	      0.00000000	      0.00000000	    112.54608900	    372.75338700	    -35.97374700	      0.70524800	      0.00000000	     -0.48438400	      0.00001500	      3.41789800	      0.00001000	     -1.59427846	    174.99273778	      0.00000000	     -0.10000504	     -0.19600140	      0.00000000	      0.00000000	      0.00000000	      0.00000000	     44.97311957	   -169.12249560	      0.00000000	     -0.08000000	     -0.08119297	      0.00000000	      0.00000000	      0.00000000	      0.00000000
     26.99300000	      0.00000000	      0.00000000	      0.00000000	      0.88900000	      0.00000000	     -0.84017500	      0.00000000	      0.00000000	      0.00000000	    111.63056200	    369.24386600	    -37.95739000	      0.70567000	      0.00000000	     -0.48502100	      0.00000900	      3.13005900	     -0.00000400	     -1.80755963	    174.99066469	      0.00000000	     -0.10000504	     -0.19600140	      0.00000000	      0.00000000	      0.00000000	      0.00000000	     44.42406047	   -169.26754813	      0.00000000	     -0.08000000	     -0.08097041	      0.00000000	      0.00000000	      0.00000000	      0.00000000
     26.99400000	      0.00000000	      0.00000000	      0.00000000	      0.88900000	      0.00000000	     -0.84017500	      0.00000000	      0.00000000	      0.00000000	    111.32538600	    366.34469600	    -40.01732600	      0.70659000	      0.00000000	     -0.48536100	      0.00002000	      3.02171300	      0.00002200	     -2.02037371	    174.98833701	      0.00000000	     -0.10000504	     -0.19600140	      0.00000000	      0.00000000	      0.00000000	      0.00000000	     43.87408394	   -169.41093459	      0.00000000	     -0.08000000	     -0.08074852	      0.00000000	      0.00000000	      0.00000000	      0.00000000
     26.99500000	      0.00000000	      0.00000000	      0.00000000	      0.88900000	      0.00000000	     -0.84017500	      0.00000000	      0.00000000	      0.00000000	    111.17279800	    363.59811400	    -40.85656000	      0.70588400	      0.00000000	     -0.48415900	      0.00000600	      3.30525600	      0.00002000	     -2.23274591	    174.98575612	      0.00000000	     -0.10000504	     -0.19600140	      0.00000000	      0.00000000	      0.00000000	      0.00000000	     43.32321937	   -169.55264275	      0.00000000	     -0.08000000	     -0.08052725	      0.00000000	      0.00000000	      0.00000000	      0.00000000
     26.99600000	      0.00000000	      0.00000000	      0.00000000	      0.88900000	      0.00000000	     -0.84017500	      0.00000000	      0.00000000	      0.00000000	    110.63874100	    360.69894400	    -41.16173600	      0.70377400	      0.00000000	     -0.48331200	      0.00000600	      4.27432600	      0.00003400	     -2.44465173	    174.98292396	      0.00000000	     -0.10000504	     -0.19600140	      0.00000000	      0.00000000	      0.00000000	      0.00000000	     42.77144802	   -169.69267289	      0.00000000	     -0.08000000	     -0.08030665	      0.00000000	      0.00000000	      0.00000000	      0.00000000
     26.99700000	      0.00000000	      0.00000000	      0.00000000	      0.88900000	      0.00000000	     -0.84017500	      0.00000000	      0.00000000	      0.00000000	    110.33356500	    357.95236200	    -41.61949900	      0.70235300	      0.00000000	     -0.48258800	      0.00000800	      4.70380200	      0.00001100	     -2.65612423	    174.97984171	      0.00000000	     -0.10000504	     -0.19600140	      0.00000000	      0.00000000	      0.00000000	      0.00000000	     42.21880700	   -169.83101111	      0.00000000	     -0.08000000	     -0.08008667	      0.00000000	      0.00000000	      0.00000000	      0.00000000
     26.99800000	      0.00000000	      0.00000000	      0.00000000	      0.88900000	      0.00000000	     -0.84017500	      0.00000000	      0.00000000	      0.00000000	    110.40985900	    354.59542800	    -42.30614500	      0.70349400	      0.00000000	     -0.48371400	      0.00001300	      4.21870200	      0.00002200	     -2.86713779	    174.97651134	      0.00000000	     -0.10000504	     -0.19600140	      0.00000000	      0.00000000	      0.00000000	      0.00000000	     41.66527652	   -169.96765790	      0.00000000	     -0.08000000	     -0.07986735	      0.00000000	      0.00000000	      0.00000000	      0.00000000
     26.99900000	      0.00000000	      0.00000000	      0.00000000	      0.88900000	      0.00000000	     -0.84017500	      0.00000000	      0.00000000	      0.00000000	    111.09650400	    352.00143400	    -43.98461200	      0.70243600	      0.00000000	     -0.48450400	      0.00001100	      3.16299700	      0.00001600	     -3.07771880	    174.97293404	      0.00000000	     -0.10000504	     -0.19600140	      0.00000000	      0.00000000	      0.00000000	      0.00000000	     41.11088733	   -170.10260122	      0.00000000	     -0.08000000	     -0.07964865	      0.00000000	      0.00000000	      0.00000000	      0.00000000
     27.00000000	      0.00000000	      0.00000000	      0.00000000	      0.88900000	      0.00000000	     -0.84017500	      0.00000000	      0.00000000	      0.00000000	    111.78315000	    349.56002800	    -45.81566600	      0.70524700	      0.00000000	     -0.48544300	      0.00000800	      2.24819400	      0.00001900	     -3.27389201	    174.96937341	      0.00000000	     -0.10000504	     -0.19600140	      0.00000000	      0.00000000	      0.00000000	      0.00000000	     40.59261189	   -170.22702447	      0.00000000	     -0.08000000	     -0.07944507	      0.00000000	      0.00000000	      0.00000000	      0.00000000
     27.00100000	      0.00000000	      0.00000000	      0.00000000	      0.88900000	      0.00000000	     -0.84017500	      0.00000000	      0.00000000	      0.00000000	    111.93573800	    347.57638500	    -47.03636900	      0.70505800	      0.00000000	     -0.48505300	      0.00000800	      1.42185100	      0.00000900	     -3.45263695	    174.96593754	      0.00000000	     -0.10000504	     -0.19600140	      0.00000000	      0.00000000	      0.00000000	      0.00000000	     40.11883761	   -170.33930512	      0.00000000	     -0.08000000	     -0.07925972	      0.00000000	      0.00000000	      0.00000000	      0.00000000
